<svg width="24" height="25" viewBox="0 0 24 25" fill="none" xmlns="http://www.w3.org/2000/svg">
<g id="heroicons-mini/code-bracket-square">
<path id="Subtract" fill-rule="evenodd" clip-rule="evenodd" d="M5.0999 2.8999C3.60873 2.8999 2.3999 4.10873 2.3999 5.5999V19.3999C2.3999 20.8911 3.60873 22.0999 5.0999 22.0999H18.8999C20.3911 22.0999 21.5999 20.8911 21.5999 19.3999V5.5999C21.5999 4.10873 20.3911 2.8999 18.8999 2.8999H5.0999ZM9.9363 10.4363C10.2878 10.0848 10.2878 9.51498 9.9363 9.16351C9.58483 8.81203 9.01498 8.81203 8.66351 9.16351L5.96351 11.8635C5.61203 12.215 5.61203 12.7848 5.96351 13.1363L8.66351 15.8363C9.01498 16.1878 9.58483 16.1878 9.9363 15.8363C10.2878 15.4848 10.2878 14.915 9.9363 14.5635L7.87269 12.4999L9.9363 10.4363ZM15.3363 9.16351C14.9848 8.81203 14.415 8.81203 14.0635 9.16351C13.712 9.51498 13.712 10.0848 14.0635 10.4363L16.1271 12.4999L14.0635 14.5635C13.712 14.915 13.712 15.4848 14.0635 15.8363C14.415 16.1878 14.9848 16.1878 15.3363 15.8363L18.0363 13.1363C18.3878 12.7848 18.3878 12.215 18.0363 11.8635L15.3363 9.16351Z" fill="#E7C009"/>
</g>
</svg>
