<svg width="24" height="25" viewBox="0 0 24 25" fill="none" xmlns="http://www.w3.org/2000/svg">
<g id="fi-sr-badge" clip-path="url(#clip0_4966_17735)">
<path id="Vector" d="M11.9998 16.5C10.4175 16.5 8.87079 16.0308 7.5552 15.1517C6.2396 14.2727 5.21422 13.0233 4.60872 11.5615C4.00322 10.0997 3.8448 8.49112 4.15348 6.93927C4.46216 5.38743 5.22408 3.96197 6.34291 2.84315C7.46173 1.72433 8.88719 0.962403 10.439 0.653721C11.9909 0.34504 13.5994 0.503466 15.0612 1.10897C16.523 1.71447 17.7725 2.73985 18.6515 4.05544C19.5306 5.37103 19.9998 6.91775 19.9998 8.49999C19.9974 10.621 19.1538 12.6544 17.654 14.1542C16.1542 15.654 14.1208 16.4976 11.9998 16.5ZM11.9998 18.5C9.83315 18.499 7.7262 17.79 5.99976 16.481V22C5.99975 22.4709 6.13277 22.9323 6.38349 23.331C6.63421 23.7296 6.99244 24.0494 7.41692 24.2533C7.8414 24.4573 8.31486 24.5373 8.78278 24.4839C9.25071 24.4306 9.69405 24.2462 10.0618 23.952L11.6878 22.652C11.7764 22.5812 11.8864 22.5427 11.9998 22.5427C12.1131 22.5427 12.2232 22.5812 12.3118 22.652L13.9378 23.952C14.3055 24.2462 14.7488 24.4306 15.2167 24.4839C15.6847 24.5373 16.1581 24.4573 16.5826 24.2533C17.0071 24.0494 17.3653 23.7296 17.616 23.331C17.8667 22.9323 17.9998 22.4709 17.9998 22V16.481C16.2732 17.7899 14.1663 18.4989 11.9998 18.5Z" fill="#118AB2"/>
</g>
<defs>
<clipPath id="clip0_4966_17735">
<rect width="24" height="24" fill="white" transform="translate(0 0.5)"/>
</clipPath>
</defs>
</svg>
