<svg width="24" height="25" viewBox="0 0 24 25" fill="none" xmlns="http://www.w3.org/2000/svg">
<g id="fi-sr-graduation-cap">
<path id="Vector" d="M23.9999 8.98042V20.5004C23.9999 20.7656 23.8946 21.02 23.707 21.2075C23.5195 21.3951 23.2651 21.5004 22.9999 21.5004C22.7347 21.5004 22.4803 21.3951 22.2928 21.2075C22.1053 21.02 21.9999 20.7656 21.9999 20.5004V12.2524L14.5999 15.7884C13.8197 16.249 12.9289 16.4888 12.0229 16.4824C11.0728 16.4839 10.1399 16.2286 9.32291 15.7434L1.94291 12.2304C1.36279 11.9185 0.876721 11.457 0.535132 10.8938C0.193543 10.3306 0.00888329 9.68628 0.000312565 9.02766C-0.00825816 8.36904 0.159573 7.72012 0.486391 7.14825C0.813209 6.57637 1.28711 6.10237 1.85891 5.77542C1.88591 5.75942 1.91491 5.74442 1.94291 5.73042L9.39991 2.17242C10.205 1.71009 11.1187 1.47055 12.047 1.47846C12.9754 1.48637 13.8848 1.74144 14.6819 2.21742L22.0569 5.73042C22.6388 6.05241 23.1252 6.52272 23.4664 7.09355C23.8077 7.66439 23.9918 8.3154 23.9999 8.98042ZM12.0219 18.4804C10.7425 18.4833 9.48504 18.1479 8.37691 17.5084L3.99991 15.4194V18.1194C4.00051 19.1869 4.34228 20.2263 4.97534 21.0859C5.6084 21.9454 6.49962 22.5802 7.51891 22.8974C8.97524 23.3156 10.4849 23.5187 11.9999 23.5004C13.5152 23.5174 15.0248 23.3129 16.4809 22.8934C17.5002 22.5762 18.3914 21.9415 19.0245 21.0819C19.6575 20.2223 19.9993 19.1829 19.9999 18.1154V15.4244L15.5409 17.5544C14.4706 18.1694 13.2563 18.4896 12.0219 18.4824V18.4804Z" fill="#EF476F"/>
</g>
</svg>
