<svg width="160" height="32" viewBox="0 0 160 32" fill="none" xmlns="http://www.w3.org/2000/svg">
<g id="Logo" clip-path="url(#clip0_5942_405)">
<path id="Subtract" fill-rule="evenodd" clip-rule="evenodd" d="M16 32C24.8366 32 32 24.8365 32 16C32 7.16344 24.8366 0 16 0C7.16344 0 0 7.16344 0 16C0 24.8365 7.16344 32 16 32ZM18.6074 9.83905C19.2066 10.2804 19.5457 10.8996 19.6247 11.6967H23.7235C23.7037 10.4912 23.3811 9.43062 22.7556 8.51497C22.13 7.5993 21.2543 6.88456 20.1284 6.37074C19.0091 5.85691 17.6988 5.6 16.1975 5.6C14.7226 5.6 13.4058 5.85691 12.2469 6.37074C11.0881 6.88456 10.1761 7.5993 9.51111 8.51497C8.85267 9.43062 8.52675 10.5011 8.53333 11.7264C8.52675 13.2217 9.01728 14.4108 10.0049 15.2935C10.9926 16.1762 12.3391 16.8251 14.0444 17.2401L16.2469 17.7934C16.9844 17.9713 17.6066 18.1689 18.1136 18.3863C18.6272 18.6037 19.0156 18.8672 19.279 19.1768C19.549 19.4864 19.684 19.8685 19.684 20.323C19.684 20.8105 19.5358 21.242 19.2395 21.6175C18.9432 21.993 18.5251 22.2861 17.9852 22.4969C17.4519 22.7077 16.823 22.8131 16.0988 22.8131C15.3613 22.8131 14.6996 22.7011 14.1136 22.4771C13.5342 22.2466 13.07 21.9073 12.721 21.4594C12.3786 21.0048 12.1844 20.4383 12.1383 19.7598H8C8.03292 21.2156 8.38518 22.4376 9.05679 23.4257C9.73498 24.4073 10.6765 25.1484 11.8815 25.649C13.093 26.1497 14.5152 26.4 16.1481 26.4C17.7942 26.4 19.2 26.153 20.3654 25.6589C21.5374 25.1583 22.4329 24.4567 23.0519 23.5542C23.6774 22.6451 23.9934 21.5714 24 20.3329C23.9934 19.4897 23.8387 18.742 23.5358 18.0899C23.2395 17.4377 22.8214 16.8712 22.2815 16.3903C21.7416 15.9094 21.1029 15.5043 20.3654 15.1749C19.628 14.8455 18.8181 14.582 17.9358 14.3844L16.1185 13.9496C15.6774 13.8508 15.2626 13.7323 14.8741 13.5939C14.4856 13.449 14.1432 13.281 13.8469 13.09C13.5506 12.8924 13.3169 12.6585 13.1457 12.3884C12.9811 12.1183 12.9053 11.8021 12.9185 11.4398C12.9185 11.005 13.0436 10.6164 13.2938 10.2738C13.5506 9.93127 13.9193 9.66448 14.4 9.47344C14.8807 9.27582 15.47 9.17701 16.1679 9.17701C17.1951 9.17701 18.0082 9.39769 18.6074 9.83905Z" fill="#C5C7D4"/>
<g id="StudyNotion">
<path d="M44.5636 22.1547C43.4407 22.1547 42.4905 22.0057 41.7131 21.7078C40.9481 21.3974 40.3249 20.9939 39.8436 20.4973C39.3747 20.0007 39.0231 19.4606 38.7886 18.8771C38.5665 18.2812 38.4369 17.6977 38.3999 17.1266H41.2874C41.3121 17.5735 41.4478 18.0018 41.6946 18.4115C41.9414 18.8212 42.3116 19.1564 42.8052 19.4172C43.2988 19.6779 43.9157 19.8082 44.6561 19.8082C45.4582 19.8082 46.0505 19.6468 46.433 19.3241C46.8279 18.9888 47.0254 18.5543 47.0254 18.0205C47.0254 17.5114 46.8526 17.0955 46.5071 16.7727C46.1739 16.4499 45.7297 16.1954 45.1744 16.0092L43.0828 15.3015C42.4165 15.0781 41.7748 14.8049 41.1578 14.4822C40.5532 14.1469 40.0534 13.7124 39.6586 13.1786C39.2637 12.6323 39.0662 11.937 39.0662 11.0928C39.0662 10.2238 39.2822 9.49127 39.7141 8.89534C40.1583 8.29942 40.763 7.84626 41.528 7.53589C42.3054 7.22551 43.1939 7.07032 44.1934 7.07032C45.4767 7.07032 46.4886 7.28758 47.229 7.72211C47.9693 8.15664 48.5061 8.70912 48.8393 9.37953C49.1848 10.0375 49.3946 10.7266 49.4686 11.4467H46.5811C46.5564 11.099 46.4577 10.77 46.285 10.4597C46.1246 10.1369 45.8654 9.87614 45.5076 9.6775C45.1497 9.47885 44.6685 9.37953 44.0638 9.37953C43.3851 9.37953 42.8792 9.52231 42.546 9.80786C42.2252 10.0934 42.0648 10.4534 42.0648 10.888C42.0648 11.3597 42.2314 11.7384 42.5646 12.024C42.9101 12.3095 43.3666 12.5516 43.9343 12.7502L46.0258 13.4579C46.7045 13.6814 47.3462 13.9607 47.9508 14.2959C48.5555 14.6311 49.0491 15.0781 49.4316 15.6368C49.8265 16.183 50.0239 16.9031 50.0239 17.797C50.0239 19.1502 49.5427 20.2179 48.5802 21.0001C47.63 21.7698 46.2911 22.1547 44.5636 22.1547Z" fill="#C5C7D4"/>
<path d="M53.7926 21.8754C53.5088 21.5402 53.2805 21.1367 53.1078 20.6649C52.9473 20.1931 52.8671 19.4854 52.8671 18.5419V12.8247H51.3494V10.7017H52.9042V7.90834H55.8472V10.7017H57.6426V12.8247H55.8472V18.2253C55.8472 19.2061 55.9582 19.9572 56.1803 20.4787C56.4025 21.0001 56.6678 21.4284 56.9763 21.7636V21.8754H53.7926Z" fill="#C5C7D4"/>
<path d="M63.1512 22.1547C61.9172 22.1547 60.9856 21.7636 60.3563 20.9815C59.727 20.1993 59.4123 19.1378 59.4123 17.797V10.7017H62.4108V17.2942C62.4108 18.0515 62.5466 18.6412 62.818 19.0633C63.0895 19.4854 63.5276 19.6965 64.1322 19.6965C64.8603 19.6965 65.4217 19.411 65.8166 18.8399C66.2115 18.2688 66.4089 17.5673 66.4089 16.7355V10.7017H69.4074V21.8754H66.7051V20.1993H66.2608C66.0757 20.758 65.7364 21.2236 65.2428 21.596C64.7492 21.9685 64.052 22.1547 63.1512 22.1547Z" fill="#C5C7D4"/>
<path d="M75.843 22.0988C74.8311 22.0988 73.9982 21.8505 73.3442 21.3539C72.6902 20.8449 72.2028 20.1497 71.8819 19.2682C71.5611 18.3867 71.4007 17.3873 71.4007 16.2699C71.4007 15.1153 71.5611 14.1035 71.8819 13.2344C72.2151 12.3654 72.7087 11.6887 73.3627 11.2046C74.029 10.7204 74.8558 10.4783 75.843 10.4783C76.571 10.4783 77.1633 10.6086 77.6199 10.8693C78.0888 11.1301 78.459 11.4839 78.7305 11.9308H79.1747V6.97721H82.1732V21.8754H79.3968V20.4228H78.9526C78.6935 20.8946 78.3171 21.2919 77.8235 21.6146C77.3299 21.9374 76.6697 22.0988 75.843 22.0988ZM76.6944 19.9758C77.4471 19.9758 78.0456 19.6468 78.4898 18.9888C78.9464 18.3184 79.1747 17.4183 79.1747 16.2886C79.1747 15.1464 78.9464 14.2463 78.4898 13.5883C78.0456 12.9303 77.4471 12.6013 76.6944 12.6013C76.0157 12.6013 75.479 12.9116 75.0841 13.5324C74.7016 14.1407 74.5103 15.0595 74.5103 16.2886C74.5103 17.5177 74.7016 18.4426 75.0841 19.0633C75.479 19.6717 76.0157 19.9758 76.6944 19.9758Z" fill="#C5C7D4"/>
<path d="M85.6019 25.5999V25.5627C85.9103 25.0536 86.2435 24.4639 86.6014 23.7935C86.9592 23.1231 87.2739 22.4837 87.5454 21.8754L83.7324 10.8135V10.7017H86.6939L87.8415 14.0538C88.0266 14.5877 88.2117 15.1588 88.3968 15.7671C88.5819 16.3755 88.767 17.1452 88.9521 18.0763H89.3963C89.5814 17.1452 89.7665 16.3755 89.9516 15.7671C90.1367 15.1588 90.3218 14.5877 90.5069 14.0538L91.6545 10.7017H94.4679V10.8135L91.0622 20.3483C90.6179 21.6022 90.1861 22.6699 89.7665 23.5514C89.3593 24.4453 89.0138 25.1281 88.73 25.5999H85.6019Z" fill="#C5C7D4"/>
<path d="M96.0597 21.8754V7.34966H101.428L105.907 19.4172H106.351V7.34966H109.165V21.8754H103.76L99.2989 9.80786H98.8732V21.8754H96.0597Z" fill="#C5C7D4"/>
<path d="M116.682 22.1547C114.844 22.1547 113.468 21.6271 112.555 20.5718C111.654 19.5041 111.203 18.0763 111.203 16.2886C111.203 14.5008 111.654 13.0792 112.555 12.024C113.468 10.9563 114.844 10.4224 116.682 10.4224C118.521 10.4224 119.891 10.9563 120.791 12.024C121.705 13.0792 122.161 14.5008 122.161 16.2886C122.161 18.0763 121.705 19.5041 120.791 20.5718C119.891 21.6271 118.521 22.1547 116.682 22.1547ZM116.682 20.1435C117.497 20.1435 118.095 19.8207 118.478 19.1751C118.86 18.5295 119.051 17.5611 119.051 16.2699C119.051 14.9912 118.86 14.0352 118.478 13.402C118.095 12.7564 117.497 12.4337 116.682 12.4337C115.868 12.4337 115.269 12.7564 114.887 13.402C114.504 14.0352 114.313 14.9912 114.313 16.2699C114.313 17.5611 114.504 18.5295 114.887 19.1751C115.269 19.8207 115.868 20.1435 116.682 20.1435Z" fill="#C5C7D4"/>
<path d="M125.785 21.8754C125.501 21.5402 125.273 21.1367 125.1 20.6649C124.939 20.1931 124.859 19.4854 124.859 18.5419V12.8247H123.341V10.7017H124.896V7.90834H127.839V10.7017H129.635V12.8247H127.839V18.2253C127.839 19.2061 127.95 19.9572 128.172 20.4787C128.394 21.0001 128.66 21.4284 128.968 21.7636V21.8754H125.785Z" fill="#C5C7D4"/>
<path d="M131.552 21.8754V10.7017H134.551V21.8754H131.552ZM133.052 9.41678C132.521 9.41678 132.12 9.28021 131.849 9.00708C131.577 8.72153 131.441 8.35528 131.441 7.90834C131.441 7.4614 131.577 7.10136 131.849 6.82822C132.12 6.54268 132.521 6.3999 133.052 6.3999C133.582 6.3999 133.983 6.54268 134.255 6.82822C134.526 7.10136 134.662 7.4614 134.662 7.90834C134.662 8.35528 134.526 8.72153 134.255 9.00708C133.983 9.28021 133.582 9.41678 133.052 9.41678Z" fill="#C5C7D4"/>
<path d="M142.039 22.1547C140.2 22.1547 138.824 21.6271 137.911 20.5718C137.01 19.5041 136.56 18.0763 136.56 16.2886C136.56 14.5008 137.01 13.0792 137.911 12.024C138.824 10.9563 140.2 10.4224 142.039 10.4224C143.878 10.4224 145.247 10.9563 146.148 12.024C147.061 13.0792 147.518 14.5008 147.518 16.2886C147.518 18.0763 147.061 19.5041 146.148 20.5718C145.247 21.6271 143.878 22.1547 142.039 22.1547ZM142.039 20.1435C142.853 20.1435 143.452 19.8207 143.834 19.1751C144.217 18.5295 144.408 17.5611 144.408 16.2699C144.408 14.9912 144.217 14.0352 143.834 13.402C143.452 12.7564 142.853 12.4337 142.039 12.4337C141.224 12.4337 140.626 12.7564 140.243 13.402C139.861 14.0352 139.67 14.9912 139.67 16.2699C139.67 17.5611 139.861 18.5295 140.243 19.1751C140.626 19.8207 141.224 20.1435 142.039 20.1435Z" fill="#C5C7D4"/>
<path d="M149.512 21.8754V10.7017H152.289V12.3778H152.733C152.955 11.8191 153.295 11.3535 153.751 10.9811C154.22 10.6086 154.905 10.4224 155.806 10.4224C157.04 10.4224 157.965 10.8135 158.582 11.5956C159.199 12.3778 159.508 13.4393 159.508 14.7801V21.8754H156.509V15.2829C156.509 14.5132 156.373 13.9235 156.102 13.5138C155.83 13.0917 155.386 12.8806 154.769 12.8806C154.053 12.8806 153.498 13.1661 153.103 13.7372C152.708 14.2959 152.511 14.9974 152.511 15.8416V21.8754H149.512Z" fill="#C5C7D4"/>
</g>
</g>
<defs>
<clipPath id="clip0_5942_405">
<rect width="160" height="32" fill="white"/>
</clipPath>
</defs>
</svg>
